# xmcd
#
# Track frame offsets:
# 150
# 26439
# 46018
# 93422
# 161979
# 200988
# 234610
# 260551
#
# Disc length: 3817 seconds
#
# Revision: 0
# Processed by: cddbd v1.4PL0 Copyright (c) Steve Scherf et al.
# Submitted via: Axialis_AX_CDPlayer 2.6
#
DISCID=6b0ee708
DTITLE=Tino Gonzales - Babes, Bikes "N" Blues
DYEAR=1900
DGENRE=
TTITLE0=Have A Good Time
TTITLE1=Scratch Jam
TTITLE2=Catch Me When I Fall
TTITLE3=Walking
TTITLE4=Texas
TTITLE5=Freddy's Funk
TTITLE6=Come Baby
TTITLE7=Solo Blues
EXTD=
EXTT0=
EXTT1=
EXTT2=
EXTT3=
EXTT4=
EXTT5=
EXTT6=
EXTT7=
PLAYORDER=
